<svg width="26" height="26" viewBox="0 0 26 26" fill="none" xmlns="http://www.w3.org/2000/svg">
<path d="M6.03456 0.937962V0.17627H2.98779V3.22304H3.74949C5.01104 3.22304 6.03456 2.19952 6.03456 0.937962Z" fill="#656363"/>
<path d="M3.749 9.31628H2.9873V12.3631H6.03408V11.6014C6.03408 10.3398 5.01055 9.31628 3.749 9.31628Z" fill="#656363"/>
<path d="M22.791 11.6014V12.3631H25.8378V9.31628H25.0761C23.8145 9.31628 22.791 10.3398 22.791 11.6014Z" fill="#656363"/>
<path d="M22.791 0.17627V0.937962C22.791 2.19952 23.8145 3.22304 25.0761 3.22304H25.8378V0.17627H22.791Z" fill="#656363"/>
<path d="M25.0769 4.74643C22.9763 4.74643 21.2684 3.03857 21.2684 0.937962V0.17627H18.4061H15.1749H13.6515H11.2295H7.55795V0.937962C7.55795 3.03857 5.85009 4.74643 3.74949 4.74643H2.98779V7.7932H3.74949C5.85009 7.7932 7.55795 9.50106 7.55795 11.6017V12.3634H11.2295H13.6515H15.1749H18.4061H21.2684V11.6017C21.2684 9.50106 22.9763 7.7932 25.0769 7.7932H25.8386V4.74643H25.0769ZM19.9771 3.12783H14.9964C15.0975 3.33015 15.1868 3.59794 15.2522 3.93118C15.5379 3.80621 15.8473 3.74075 16.1746 3.74075C16.9303 3.74075 17.5552 4.02044 18.0491 4.57386C18.543 5.12727 18.7929 5.7878 18.7929 6.5495C18.7929 7.31714 18.5608 7.97767 18.0907 8.53704C17.5968 9.14401 16.9779 9.4475 16.2222 9.4475C15.9723 9.4475 15.6628 9.38799 15.2998 9.27493V7.68013C15.6985 7.89436 16.002 8.00742 16.2103 8.00742C16.5733 8.00742 16.8708 7.86461 17.1029 7.57302C17.329 7.28144 17.4481 6.95415 17.4481 6.59115C17.4481 6.21626 17.329 5.88897 17.091 5.60928C16.853 5.3296 16.5495 5.18678 16.1865 5.18678C15.8235 5.18678 15.5319 5.27604 15.3117 5.46051C15.0737 6.63281 14.3596 7.4183 13.1695 7.8051L16.5852 10.5662H14.2942L9.29556 6.52569L10.3667 5.47241L11.2653 6.26386C11.5509 6.46024 11.8425 6.55545 12.14 6.55545C12.6637 6.55545 13.0921 6.38883 13.4254 6.05559C13.7586 5.72235 13.9193 5.29389 13.9193 4.77023C13.9193 4.04424 13.6217 3.49677 13.0267 3.13378H8.84926V1.97934H19.9831V3.12783H19.9771Z" fill="#656363"/>
<path d="M20.0776 15.3208L17.5902 20.1706H9.99108V18.5461H16.6083L17.8877 16.1063H7.13473C6.27188 16.1063 5.44473 16.4514 4.8318 17.0584L0.838867 20.73L5.71846 25.8238L7.41442 24.4551H20.4763C20.6905 24.0029 23.4576 18.1712 24.9869 14.9518C25.1714 14.5591 24.8857 14.1128 24.4573 14.1128H22.0711C21.2261 14.1068 20.4584 14.5769 20.0776 15.3208Z" fill="#656363"/>
</svg>
