<svg width="41" height="41" viewBox="0 0 41 41" fill="none" xmlns="http://www.w3.org/2000/svg">
<g clip-path="url(#clip0_42_2)">
<path d="M41 20.5018C41 30.9261 33.2198 39.531 23.1494 40.8301C22.9654 40.8549 22.7849 40.8761 22.6008 40.8938C22.2574 40.9292 21.9106 40.954 21.5637 40.9717C21.3831 40.9823 21.2026 40.9894 21.0186 40.9929C20.8487 40.9929 20.6752 41 20.5018 41C20.3283 41 20.1549 40.9965 19.9814 40.9929C19.8009 40.9894 19.6169 40.9823 19.4363 40.9717C19.0859 40.954 18.7426 40.9292 18.3992 40.8938C18.2151 40.8761 18.0346 40.8549 17.8541 40.8301C7.78019 39.531 0 30.9261 0 20.5018C0 9.17836 9.17836 0 20.5018 0C31.8252 0 41 9.17836 41 20.5018Z" fill="#BB232D"/>
<path d="M3.18567 20.5018C2.78923 13.5286 7.23506 6.70058 13.6843 4.04936C22.5901 0.187585 33.3224 4.67943 36.7311 13.7799C37.5346 15.9356 37.9311 18.2328 37.8143 20.5018C37.5559 11.3871 29.5916 3.56089 20.5017 3.72018C11.4119 3.56089 3.44407 11.3871 3.18921 20.5018H3.18567Z" fill="#E45E67"/>
<path d="M27.567 8.26868C34.7738 11.6101 37.3365 21.1071 33.0889 27.7652C31.7544 29.9244 29.8112 31.6871 27.5635 32.7313C29.5846 31.3048 31.2377 29.4607 32.3703 27.351C35.9737 20.7743 33.7154 12.4738 27.5635 8.26868H27.567Z" fill="#E45E67"/>
<path d="M27.0644 14.318H13.9358C13.465 14.318 13.1181 13.8861 13.2137 13.426C13.288 13.0862 13.5853 12.8419 13.9358 12.8419H27.0679C27.4148 12.8419 27.7157 13.0862 27.79 13.426C27.8891 13.8861 27.5387 14.318 27.0679 14.318H27.0644Z" fill="white"/>
<path d="M28.0095 18.7425H12.9907C12.5199 18.7425 12.1695 18.3107 12.2686 17.8505C12.3429 17.5107 12.6438 17.2665 12.9907 17.2665H28.013C28.3599 17.2665 28.6608 17.5107 28.7351 17.8505C28.8342 18.3107 28.4838 18.7425 28.013 18.7425H28.0095Z" fill="white"/>
<path d="M28.9546 23.1671H12.0456C11.5748 23.1671 11.228 22.7352 11.3235 22.2751C11.3979 21.9353 11.6952 21.691 12.0456 21.691H28.9582C29.305 21.691 29.6059 21.9353 29.6803 22.2751C29.7794 22.7352 29.4289 23.1671 28.9582 23.1671H28.9546Z" fill="white"/>
<path d="M20.4984 11.0933C21.1044 11.0933 21.5957 10.602 21.5957 9.99598C21.5957 9.38996 21.1044 8.89868 20.4984 8.89868C19.8924 8.89868 19.4011 9.38996 19.4011 9.99598C19.4011 10.602 19.8924 11.0933 20.4984 11.0933Z" fill="white"/>
<path d="M27.9528 28.0412C25.8821 28.0412 24.2007 29.719 24.2007 31.7932V32.6569L23.1459 32.9507L22.6008 33.1029L21.5637 33.3932L21.0186 33.5454L20.4982 33.6905L19.9779 33.5454L19.4328 33.3932L18.3957 33.1029L17.8506 32.9507L16.7922 32.6569V31.7932C16.7922 30.7596 16.371 29.8181 15.6949 29.142C15.0153 28.4624 14.0773 28.0447 13.0437 28.0447L14.0844 23.1741L14.3994 21.6981L15.0295 18.7495L15.348 17.2735L15.9781 14.325L16.2931 12.8489L16.7037 10.9233L19.4045 10.0278L20.5018 9.66321L21.5991 10.0278L24.2999 10.9233L24.7105 12.8489L25.0255 14.325L25.6555 17.2735L25.9741 18.7495L26.6042 21.6981L26.9192 23.1741L27.9599 28.0447L27.9528 28.0412Z" fill="white"/>
<path d="M18.3994 26.0979V33.1029L17.8542 32.9507V26.0979H18.3994Z" fill="#BB232D"/>
<path d="M19.9816 20.3318V33.5454L19.4365 33.3932V20.3318H19.9816Z" fill="#BB232D"/>
<path d="M21.5639 20.3318V33.3932L21.0188 33.5454V20.3318H21.5639Z" fill="#BB232D"/>
<path d="M23.1495 32.9507V40.83C22.9654 40.8548 22.7849 40.876 22.6008 40.8937V33.1029L23.1495 32.9507Z" fill="white"/>
<path d="M18.3994 33.1029V40.8937C18.2153 40.876 18.0348 40.8548 17.8542 40.83V32.9507L18.3994 33.1029Z" fill="white"/>
<path d="M19.9816 33.5454V40.9929C19.8011 40.9893 19.617 40.9822 19.4365 40.9716V33.3932L19.9816 33.5454Z" fill="white"/>
<path d="M21.5639 33.3932V40.9716C21.3834 40.9822 21.2029 40.9893 21.0188 40.9929V33.5454L21.5639 33.3932Z" fill="white"/>
<path d="M23.1495 26.0979V32.9507L22.6008 33.1029V26.0979H23.1495Z" fill="#BB232D"/>
</g>
<defs>
<clipPath id="clip0_42_2">
<rect width="41" height="41" fill="white"/>
</clipPath>
</defs>
</svg>
