<svg width="137" height="110" viewBox="0 0 137 110" fill="none" xmlns="http://www.w3.org/2000/svg">
<g clip-path="url(#clip0_3_310)">
<path d="M78.1773 28.2843C76.3036 30.2434 75.617 32.7473 75.2539 35.3473C74.5642 40.2773 71.7475 44.2673 66.1157 45.1309C63.7674 45.491 61.8174 46.6201 60.0764 48.1673C58.1585 49.8732 56.2909 51.6386 54.3332 53.2956C52.0155 55.2579 49.9022 55.3067 47.4639 53.5733C46.5073 52.8928 45.958 51.9468 45.7779 50.7857C45.5429 49.2644 46.0281 47.8759 46.5408 46.4859C46.8933 45.5292 47.5265 44.8487 48.4176 44.3741C49.4918 43.8019 50.5904 43.2633 51.6188 42.6148C52.8669 41.8275 53.0759 40.6191 52.2856 39.3953C51.4403 38.0892 50.2989 37.6315 49.0554 38.1014C47.6577 38.6309 47.023 39.8195 47.2793 41.3789C47.3571 41.8535 47.4563 42.3493 47.3968 42.8178C47.3266 43.3793 47.2595 44.0888 46.9009 44.4321C46.2219 45.0852 45.3797 45.6116 44.5252 46.0296C43.7348 46.4172 42.9658 46.141 42.4318 45.4285C42.148 45.0501 41.8947 44.6106 41.768 44.159C41.5178 43.271 41.3652 42.3539 41.1699 41.44C38.7652 43.1016 36.5238 47.174 36.1606 50.3264C35.7746 53.6573 36.4414 56.8066 37.7353 59.8338C38.4341 61.4726 39.2733 63.0503 40.0942 64.6982C42.6774 66.5841 45.195 68.8881 45.2256 72.0557C46.8857 74.3917 47.7951 76.946 48.0621 79.7016C48.915 88.4751 45.4865 95.4619 38.6645 100.757C34.2075 104.216 29.0121 104.948 23.542 103.715C20.382 103.004 17.5119 101.617 14.8311 99.8212C14.8143 99.809 14.7975 99.7968 14.7792 99.7831C13.5082 99.4367 12.6369 98.4296 11.7794 97.3478C11.6207 97.1983 11.488 97.0732 11.314 96.9099C11.3369 96.8885 11.3598 96.8672 11.3827 96.8458C11.2438 96.6704 11.1035 96.4949 10.9585 96.3225C10.9417 96.3377 10.9234 96.353 10.9066 96.3682C10.5954 96.1958 10.4733 96.0402 10.5435 95.8449C10.3787 95.6648 10.2093 95.4894 10.0323 95.3246C10.0216 95.3337 10.0125 95.3429 10.0018 95.352C9.96519 95.3002 9.92857 95.2513 9.895 95.2025C9.62493 94.9645 9.33655 94.7478 9.02375 94.5662C9.04359 94.3984 9.06648 94.2306 9.09089 94.0642C8.72622 93.3669 8.37375 92.7459 8.08689 92.0975C6.30015 88.0571 6.01482 83.8549 6.83572 79.5597C7.32551 76.9963 8.05333 74.4894 9.79887 72.4677C14.4221 67.112 20.2172 63.5431 26.9583 61.4878C28.0401 61.1582 28.8885 60.5693 29.4622 59.6293C29.6453 59.3303 29.7521 58.7978 29.6087 58.5201C29.1632 57.658 28.5803 56.8646 28.0508 56.0452C27.9669 56.1062 27.883 56.1657 27.7991 56.2268C27.9776 56.4922 28.1561 56.7593 28.3362 57.0248C29.3691 58.5399 29.2303 59.3318 27.5504 60.0627C25.8124 60.8195 24.0318 61.5794 22.1917 61.9807C17.164 63.0747 12.5057 64.9316 8.24253 67.8398C5.59064 69.6495 3.52009 71.897 2.13616 74.79C0.23956 78.7556 -0.332625 82.9348 0.167846 87.2682C0.892615 93.5561 3.69251 98.7806 8.48666 102.891C12.9634 106.73 18.2245 108.904 24.0257 109.763C28.5238 110.43 32.7855 109.719 36.6718 107.237C39.5251 105.413 41.7406 102.949 43.6601 100.197C46.199 96.5544 48.0682 92.5415 50.0746 88.6064C51.7805 85.2617 53.7031 82.0682 56.6159 79.607C58.5003 78.0156 60.6273 77.1398 63.1556 77.6051C64.6127 77.8722 66.0699 78.0415 67.5332 77.6158C69.1139 77.1565 69.7639 76.0564 69.355 74.4802C68.8622 72.5821 67.7788 71.8177 66.1264 72.2403C64.6356 72.6233 63.3966 73.4564 62.327 74.5336C61.2986 75.5682 59.8354 75.9374 58.482 75.382C56.5869 74.6054 55.4761 73.0261 55.0031 71.1829C53.5688 65.5953 54.1608 60.2229 57.3452 55.3036C60.3023 50.7353 64.5181 47.7004 69.4694 45.5826C70.6749 45.0668 71.9001 44.5023 72.9407 43.7241C74.7931 42.3387 76.09 40.6206 76.2395 38.0923C76.4455 34.6103 77.3717 31.2734 79.3202 28.3163C80.0053 27.2772 80.8491 26.3434 81.6196 25.3623C80.4051 26.2534 79.2134 27.1963 78.1743 28.2827L78.1773 28.2843Z" fill="#BD232E"/>
<path d="M40.3566 65.2231C35.2741 69.9607 30.1793 74.7091 25.0678 79.4743L40.3566 65.2231Z" fill="black"/>
<path d="M9.89804 95.2041C9.80192 95.0698 9.71037 94.9432 9.60203 94.7921C19.9868 85.1122 30.3518 75.4492 40.7518 65.7541C41.2935 66.1828 41.031 66.462 40.703 66.7687C37.6147 69.6403 34.5341 72.5196 31.4504 75.3958C24.7428 81.6501 18.0353 87.906 11.3247 94.1589C10.9097 94.5464 10.484 94.9218 10.0354 95.3261C10.2124 95.4909 10.3817 95.6664 10.5465 95.8464C10.5831 95.7473 10.6671 95.6389 10.8044 95.5108C19.6969 87.2331 28.5788 78.9433 37.4637 70.6581C38.7988 69.413 40.1445 68.1801 41.5086 66.9198C42.0396 67.3516 41.7863 67.5973 41.4705 67.8902C37.4316 71.6468 33.4034 75.4141 29.3707 79.1768C23.3864 84.7598 17.4005 90.3413 11.4147 95.9212C11.2667 96.0585 11.1141 96.1898 10.9615 96.324C11.105 96.4964 11.2453 96.6719 11.3857 96.8474C21.6973 87.2347 31.9814 77.6494 42.3051 68.0245C42.4638 68.2366 42.5813 68.3907 42.7308 68.5906C32.433 78.1896 22.1474 87.7763 11.8282 97.3936C11.8114 97.3784 11.7977 97.3646 11.7809 97.3494C12.6384 98.4327 13.5097 99.4398 14.7807 99.7846C14.6983 99.7205 14.6159 99.6412 14.4893 99.5344C24.5658 90.1398 34.6119 80.7758 44.7083 71.3615C44.8899 71.5904 40.2697 65.0461 40.3551 65.2231L25.0663 79.4743C19.7976 84.3859 14.5106 89.3144 9.19769 94.2657C9.16259 94.197 9.1275 94.1299 9.0924 94.0643C9.06799 94.2306 9.0451 94.3984 9.02527 94.5663C9.33806 94.7478 9.62644 94.9645 9.89652 95.2025L9.89804 95.2041ZM43.8386 71.2791C38.6523 76.1083 33.469 80.9406 28.2858 85.7729C23.6595 90.0849 19.0347 94.4 14.4114 98.715C14.1017 99.0049 13.8133 99.3421 13.4044 98.6875C23.542 89.2366 33.6918 79.7718 43.8508 70.301C44.5206 70.7298 44.1483 70.9907 43.8386 71.2791ZM43.5777 69.651C41.7543 71.3584 40.0164 72.9911 38.2739 74.6176C33.3302 79.2286 28.3865 83.8382 23.4382 88.4462C20.054 91.5985 16.6605 94.7402 13.2793 97.8972C12.9573 98.1977 12.6964 98.4007 12.3424 97.8178C22.5594 88.2936 32.7778 78.7678 43.1153 69.1307C43.2649 69.3001 43.4007 69.4527 43.5792 69.6525L43.5777 69.651Z" fill="black"/>
<path d="M99.7877 9.27551C99.2948 8.61636 98.8859 8.07164 98.4388 7.47351C99.2231 7.09053 99.9692 6.72585 100.754 6.34287C101.193 7.00966 101.608 7.63983 102.061 8.3295C102.569 7.91142 103.054 7.51318 103.596 7.06764C103.233 6.50919 102.879 5.96752 102.479 5.35261C102.949 5.03981 103.404 4.7377 103.929 4.38829C104.24 4.85672 104.544 5.31294 104.899 5.85003C105.471 5.50519 106.024 5.17409 106.646 4.79873C106.272 4.38981 105.941 4.02667 105.568 3.61774C106.338 3.05013 107.066 2.51304 107.829 1.95154C108.178 2.4749 108.5 2.95706 108.85 3.47737C109.87 2.40013 110.864 1.38546 111.813 0.331109C112.122 -0.0122022 112.38 -0.103752 112.788 0.123597C113.979 0.787332 115.15 1.46175 115.47 2.9479C115.491 3.04403 115.487 3.14474 115.502 3.32784C114.927 3.43007 114.359 3.51399 113.799 3.633C112.348 3.94427 110.948 4.37761 109.799 5.3816C108.912 6.15825 108.644 7.15156 108.847 8.27457C109.025 9.26483 109.8 9.68291 110.885 9.34723C112.769 8.76589 114.204 7.52844 115.479 6.08043C115.644 5.89275 115.789 5.68524 116.013 5.39686C116.21 5.93395 116.43 6.38254 116.521 6.85708C116.56 7.05696 116.378 7.36213 116.207 7.52844C115.449 8.27457 114.66 8.98866 113.783 9.8065C114.408 10.0293 114.938 10.2185 115.591 10.4519C114.938 11.0653 114.326 11.6405 113.647 12.2768C113.207 11.8145 112.795 11.3827 112.324 10.8868C111.852 11.3201 111.395 11.7397 110.867 12.2234C111.459 12.5713 111.987 12.881 112.594 13.2381C111.823 13.9629 111.109 14.6327 110.302 15.391C109.963 14.9775 109.648 14.593 109.289 14.1566C108.911 14.5579 108.622 14.8616 108.308 15.1927C108.753 15.6809 109.159 16.1265 109.614 16.6239C109.001 17.19 108.413 17.7317 107.74 18.3527C107.453 17.991 107.188 17.6584 106.941 17.3487C106.808 17.4219 106.741 17.4341 106.724 17.4692C105.941 19.2514 104.55 19.5123 102.707 19.5535C97.5035 19.6679 92.6102 20.974 88.5179 24.4224C87.6878 25.1212 86.9387 25.9376 86.2566 26.7859C85.1626 28.1485 84.653 29.7277 84.9383 31.4885C85.4845 34.853 83.8534 37.2806 81.5052 39.3969C81.8592 38.8949 82.2239 38.4005 82.5656 37.8894C83.7237 36.1515 84.3585 34.2945 84.1388 32.1477C84.0075 30.8675 84.003 29.5431 84.1754 28.2721C84.4882 25.9879 85.9164 24.3049 87.5749 22.8325C89.6302 21.0091 91.8045 19.3521 94.2474 18.046C94.8409 17.7286 95.4009 17.071 95.6481 16.4408C96.3332 14.6983 96.8825 12.8994 97.4043 11.0989C97.5859 10.4748 97.8666 10.0857 98.4663 9.87211C98.8874 9.72258 99.2857 9.50439 99.7846 9.27551H99.7877Z" fill="black"/>
<path d="M71.2668 58.2256V56.39H73.5312C73.5464 56.6403 73.5724 56.863 73.5724 57.0858C73.5785 63.2639 73.5708 69.442 73.5968 75.6201C73.6029 77.242 72.7133 78.5542 72.2235 80.0053C72.1854 80.1167 71.955 80.2204 71.81 80.2265C71.2028 80.2509 70.594 80.2372 69.8494 80.2372C70.2537 79.1737 70.6519 78.2018 70.9891 77.21C71.1478 76.7415 71.2607 76.235 71.2668 75.7436C71.2958 73.5083 71.2791 71.273 71.2791 68.8515C69.5259 70.4124 67.5682 70.9968 65.3833 70.6932C63.1571 70.3849 61.4695 69.1948 60.2717 67.3256C58.3858 64.3808 58.9702 60.6547 61.6145 58.189C64.01 55.9552 68.2091 55.5554 71.2684 58.2256H71.2668ZM66.3796 58.691C63.6636 58.7093 61.4878 60.9004 61.5092 63.5935C61.5305 66.2698 63.7674 68.4639 66.4574 68.4456C69.0986 68.4273 71.2913 66.2057 71.2806 63.5569C71.2699 60.8287 69.0986 58.6727 66.3796 58.691Z" fill="black"/>
<path d="M116.555 94.0521C116.555 95.0377 116.555 95.8693 116.555 96.6994C116.555 97.2593 116.508 97.8224 116.564 98.3762C116.798 100.667 116.273 102.8 115.324 104.866C115.148 105.246 114.98 105.426 114.549 105.394C114.027 105.354 113.499 105.384 112.84 105.384C113.195 104.449 113.56 103.642 113.805 102.8C114.03 102.034 114.253 101.23 114.257 100.442C114.288 94.493 114.263 88.5438 114.257 82.5961C114.257 82.2727 114.257 81.9492 114.257 81.5784H116.476C116.506 82.1475 116.534 82.6709 116.57 83.3667C118.743 81.5265 121.12 81.11 123.69 81.8927C125.336 82.3932 126.574 83.475 127.51 84.891C129.312 87.6131 128.859 91.2659 126.542 93.7255C124.541 95.848 120.234 97.0595 116.557 94.0551L116.555 94.0521ZM116.555 88.7254C116.56 91.4276 118.761 93.6355 121.435 93.6202C124.115 93.6035 126.339 91.3925 126.355 88.7284C126.372 86.043 124.099 83.7863 121.399 83.8061C118.688 83.8275 116.55 85.9972 116.555 88.7254Z" fill="#BB232D"/>
<path d="M95.2407 95.88H92.9641C92.9641 95.5367 92.9641 95.2163 92.9641 94.8974C92.9641 92.8375 92.9779 90.7792 92.9596 88.7193C92.9367 86.2642 91.0569 84.1235 88.7376 83.8794C86.0979 83.6017 83.8427 85.1519 83.2873 87.6741C83.1637 88.2356 83.1775 88.8337 83.1729 89.4166C83.1576 91.5009 83.1622 93.5851 83.1561 95.6694C83.1561 95.7167 83.1271 95.7625 83.0905 95.8678H80.9467C80.9284 95.6542 80.8933 95.436 80.8933 95.2193C80.8842 89.0168 80.8796 82.8143 80.8704 76.6103C80.8674 75.025 81.7554 73.725 82.2391 72.2953C82.2742 72.19 82.4634 72.0725 82.5855 72.0694C83.211 72.0466 83.8366 72.0588 84.5797 72.0588C84.1586 73.1589 83.7588 74.1369 83.4155 75.1333C83.2706 75.5529 83.1744 76.0137 83.1699 76.4562C83.1454 78.7159 83.1592 80.9772 83.1592 83.3285C83.3499 83.24 83.4674 83.211 83.5528 83.1424C85.8736 81.3053 88.4568 81.0245 91.0645 82.2437C93.7942 83.5208 95.2361 85.7866 95.2392 88.8688C95.2407 91.1774 95.2392 93.4875 95.2392 95.8785L95.2407 95.88Z" fill="#BB232D"/>
<path d="M121.586 70.687C121.343 70.7038 121.146 70.7282 120.949 70.7298C120.447 70.7359 119.944 70.7313 119.349 70.7313V68.792C117.405 70.5238 115.279 71.0288 112.942 70.5787C111.146 70.2323 109.744 69.2116 108.641 67.7758C106.504 64.9927 106.81 61.0484 109.326 58.4575C111.654 56.0589 115.899 55.3006 119.282 58.1508V56.3427H121.589V70.6855L121.586 70.687ZM109.565 63.4775C109.556 66.2286 111.732 68.3983 114.494 68.3907C117.103 68.383 119.311 66.195 119.329 63.598C119.349 60.8455 117.161 58.6376 114.426 58.6513C111.736 58.665 109.574 60.8119 109.565 63.4775Z" fill="black"/>
<path d="M111.93 88.73C111.994 92.5186 108.723 95.8556 104.895 95.9075C100.906 95.9609 97.5981 92.7536 97.5553 88.7941C97.5141 84.8834 100.673 81.641 104.597 81.5647C108.642 81.4869 111.86 84.6316 111.929 88.73H111.93ZM109.638 88.7315C109.654 86.046 107.481 83.8504 104.772 83.8183C102.118 83.7863 99.8624 86.0018 99.8273 88.6766C99.7937 91.3254 102.017 93.6019 104.676 93.6386C107.377 93.6752 109.622 91.4566 109.637 88.7315H109.638Z" fill="#BB232D"/>
<path d="M76.4593 56.387H78.7663C78.7663 58.7734 78.7617 61.1079 78.7663 63.4439C78.7709 65.2963 79.5735 66.7306 81.1313 67.7025C82.648 68.6485 84.2685 68.7157 85.8462 67.8917C87.4315 67.0647 88.4446 65.7403 88.5072 63.9078C88.582 61.6984 88.5255 59.4844 88.527 57.272C88.527 56.9943 88.527 56.715 88.527 56.3733H90.7807V70.7084H88.556V68.8805C88.3378 69.0254 88.2356 69.0819 88.1471 69.1536C85.8324 70.9953 83.2599 71.305 80.6461 70.0615C77.9973 68.8011 76.4959 66.6177 76.4654 63.5904C76.4425 61.204 76.4608 58.8176 76.4608 56.387H76.4593Z" fill="black"/>
<path d="M78.4291 83.6825C77.8707 84.1708 77.3381 84.6362 76.7431 85.1549C75.7086 84.1967 74.3704 83.7008 72.8217 83.8641C72.5455 83.8931 72.2663 83.9343 71.9977 84.0014C71.0838 84.2288 70.5238 84.8528 70.478 85.6707C70.4261 86.5892 70.8396 87.2163 71.8528 87.5078C72.6767 87.7458 73.5449 87.8251 74.3841 88.0144C75.1486 88.1868 75.9344 88.3348 76.65 88.6354C78.1423 89.2625 78.8411 90.7318 78.5085 92.3187C78.0828 94.3465 76.8804 95.4726 74.7961 95.8098C72.3548 96.205 70.2186 95.613 68.3525 93.8247C68.9125 93.3196 69.4496 92.8344 70.034 92.305C71.3035 93.544 72.9087 93.8674 74.6847 93.5363C75.7742 93.3334 76.3769 92.7765 76.4349 91.9235C76.502 90.9394 75.9435 90.1322 74.8724 89.8637C74.0393 89.6546 73.1711 89.5905 72.3197 89.4502C72.0695 89.409 71.8253 89.3342 71.5797 89.2716C69.4801 88.7254 68.4838 87.5032 68.5555 85.5639C68.6333 83.4491 69.854 81.9995 71.9382 81.6837C74.3735 81.3144 76.5813 81.7981 78.4261 83.681L78.4291 83.6825Z" fill="#BB232D"/>
<path d="M126.815 70.7038H124.572V56.3504H126.77V58.1203C130.223 55.5798 133.505 55.6637 136.739 58.3461C136.16 58.9138 135.643 59.4203 135.079 59.9727C134.259 59.3044 133.305 58.7581 132.115 58.6422C129.409 58.3767 126.845 60.5937 126.818 63.3188C126.796 65.4794 126.813 67.6384 126.813 69.799C126.813 70.0737 126.813 70.3498 126.813 70.7038H126.815Z" fill="black"/>
<path d="M100.743 70.687V58.6834H98.4876V56.3198H100.726V50.6422H103.027V56.2863H105.302V58.665H103.071V70.6886H100.744L100.743 70.687Z" fill="black"/>
<path d="M93.7728 56.3427H95.9532V70.7023H93.7728V56.3427Z" fill="black"/>
<path d="M97.4455 50.6697C96.9679 51.9072 96.5437 53.0348 96.089 54.1486C96.0402 54.2691 95.819 54.3821 95.6725 54.3882C95.0728 54.4156 94.4717 54.3988 93.7393 54.3988C94.2153 53.1614 94.6395 52.0338 95.0942 50.9184C95.143 50.7979 95.3643 50.6865 95.5108 50.6789C96.1089 50.6514 96.7085 50.6682 97.444 50.6682L97.4455 50.6697Z" fill="#BB232D"/>
<path d="M96.0799 97.0991C96.8718 96.9038 97.3311 97.1037 97.6851 97.743C98.1733 98.628 98.7638 99.4565 99.3253 100.332C99.8456 99.1605 99.9814 97.5035 99.5969 97.0473H100.465C100.302 97.7537 100.117 98.4983 99.9601 99.2475C99.7953 100.039 99.6564 100.837 99.4687 101.829C98.6234 100.526 97.8743 99.3711 97.1251 98.2176C96.9252 99.3558 96.3072 100.422 96.6429 101.617H95.7976C95.941 101.329 96.1562 101.042 96.2279 100.721C96.3957 99.9799 96.443 99.2109 96.6353 98.4785C96.7924 97.8773 96.8367 97.3875 96.0768 97.1007L96.0799 97.0991Z" fill="black"/>
<path d="M105.003 99.1453C105.275 98.6051 105.705 98.3305 106.294 98.5365C106.892 98.7455 106.898 99.2994 106.864 99.8166C106.774 101.182 105.737 101.954 104.399 101.576C104.362 102.079 104.329 102.563 104.29 103.09H103.354C103.854 102.452 104.361 99.3635 104.029 98.7897C104.307 98.686 104.577 98.5838 104.852 98.4815C104.922 98.7318 104.977 98.9255 105.032 99.1178C104.875 99.6976 104.649 100.271 104.597 100.86C104.579 101.068 105.087 101.541 105.18 101.5C105.519 101.349 105.952 101.077 106.036 100.767C106.169 100.27 106.089 99.6991 105.995 99.1773C105.983 99.1086 105.349 99.1529 105.003 99.1453Z" fill="black"/>
<path d="M109.658 101.399C109.425 101.597 109.091 102.023 108.692 101.307C108.499 101.411 108.326 101.573 108.143 101.584C107.85 101.602 107.325 101.584 107.295 101.472C107.208 101.158 107.203 100.689 107.388 100.464C107.64 100.154 108.084 99.9829 108.468 99.8044C108.784 99.6579 109.208 99.6381 109.109 99.1407C109.077 98.9774 108.908 98.8416 108.801 98.6936C108.558 98.8889 108.312 99.0812 108.076 99.2826C107.971 99.3726 107.882 99.4809 107.609 99.7693C107.635 99.3528 107.575 99.1102 107.672 98.9835C108.065 98.4617 108.618 98.3381 109.231 98.5258C109.855 98.7165 109.722 99.1743 109.614 99.6396C109.522 100.032 109.461 100.436 109.435 100.837C109.426 100.987 109.553 101.144 109.66 101.4L109.658 101.399ZM109.101 100.029C109.02 99.9662 108.938 99.9021 108.857 99.8395C108.528 100.041 108.155 100.198 107.887 100.462C107.759 100.587 107.826 100.914 107.804 101.149C108.032 101.156 108.381 101.26 108.467 101.153C108.732 100.822 108.897 100.41 109.101 100.029Z" fill="black"/>
<path d="M103.148 100.859C102.687 101.637 101.957 101.985 101.309 101.606C100.663 101.23 100.491 100.311 101.045 99.4413C101.303 99.0354 101.782 98.6585 102.238 98.5151C103.036 98.2633 103.489 98.7562 103.418 99.719H101.12C101.384 100.279 101.486 100.905 101.773 101.005C102.189 101.15 102.739 100.92 103.148 100.86V100.859ZM102.774 99.4474C102.821 99.368 102.867 99.2872 102.914 99.2078C102.69 99.0369 102.436 98.6982 102.249 98.7318C101.941 98.7882 101.677 99.0842 101.394 99.2795C101.437 99.336 101.48 99.3924 101.523 99.4474H102.772H102.774Z" fill="black"/>
<path d="M111.35 101.614H110.32C110.861 100.958 111.376 97.6118 110.993 97.1342C111.286 97.0335 111.566 96.9359 111.91 96.8168C111.858 98.4663 111.14 99.9784 111.35 101.614Z" fill="black"/>
<path d="M40.0957 64.6997L45.2271 72.0572L48.8509 68.1694L45.1889 63.5919L40.0957 64.6997Z" fill="#BD232E"/>
<path d="M9.02683 93.9819C9.02683 93.9819 12.6659 99.0491 15.1195 100.012C17.573 100.975 10.0049 99.0644 10.0049 99.0644L8.19983 93.9819H9.02835H9.02683Z" fill="#BD232E"/>
</g>
<defs>
<clipPath id="clip0_3_310">
<rect width="136.74" height="110" fill="white"/>
</clipPath>
</defs>
</svg>
