<svg width="201" height="200" viewBox="0 0 201 200" fill="none" xmlns="http://www.w3.org/2000/svg">
<circle cx="100.5" cy="100" r="100" fill="#FAFAFA"/>
<path d="M45.5223 88.251C44.3752 83.3749 44.388 73.0826 43.2419 68.2064C61.9871 65.6668 80.8509 64.0104 99.7509 63.2458C99.8599 61.5103 99.9699 59.7748 100.079 58.0382C117.53 58.683 134.981 59.3267 152.432 59.9715C153.849 60.0239 155.552 60.2581 156.136 61.552C156.449 62.2471 156.325 63.0491 156.232 63.8051C155.134 72.7115 156.426 81.711 156.123 90.5351" fill="#EBEBEB"/>
<path d="M149.986 104.554L53.5149 106.474L52.2781 70.9299L149.269 68.4683L149.986 104.554Z" fill="#E6E9ED"/>
<path d="M150.003 105.441L53.5309 107.363C53.046 107.373 52.6433 106.991 52.6263 106.505L51.3905 70.961C51.3819 70.7246 51.4695 70.4937 51.6308 70.3204C51.7931 70.1483 52.0185 70.0478 52.2546 70.0424L149.246 67.5797C149.471 67.5562 149.71 67.661 149.881 67.8257C150.052 67.9882 150.15 68.2139 150.156 68.4502L150.872 104.536C150.882 105.027 150.493 105.432 150.003 105.441ZM54.3705 105.569L149.081 103.682L148.4 69.3784L53.1966 71.7961L54.3705 105.569Z" fill="#E0E0E0"/>
<path d="M152.982 110.265L56.51 112.186L55.2742 76.6413L152.265 74.1797L152.982 110.265Z" fill="white"/>
<path d="M152.999 111.153L56.527 113.074C56.0421 113.084 55.6394 112.702 55.6224 112.217L54.3866 76.6723C54.378 76.436 54.4656 76.205 54.6269 76.0317C54.7892 75.8596 55.0146 75.7591 55.2507 75.7537L152.242 73.2911H152.246C152.48 73.2868 152.707 73.3745 152.877 73.537C153.048 73.6995 153.146 73.9252 153.152 74.1615L153.868 110.247C153.878 110.738 153.489 111.143 152.999 111.153ZM57.3666 111.28L152.077 109.394L151.396 75.0897L56.1927 77.5074L57.3666 111.28Z" fill="#E0E0E0"/>
<path d="M157.338 90.5095C157.538 83.8754 156.904 77.2541 157.007 70.621C157.031 69.032 157.098 67.443 157.232 65.8593C157.344 64.5259 157.778 62.9646 157.439 61.6322C156.856 59.3385 154.446 58.8563 152.407 58.7547C149.425 58.606 146.437 58.5344 143.452 58.4243C131.414 57.9794 119.374 57.5356 107.336 57.0908C105.927 57.0384 104.507 56.9325 103.097 56.9347C101.671 56.9358 100.37 57.4651 99.5042 58.6349C98.5226 59.9609 98.6348 61.6964 98.5354 63.2694C98.9317 62.8556 99.329 62.4428 99.7253 62.029C88.6213 62.4834 77.5312 63.2352 66.4689 64.2981C60.9874 64.8253 55.5144 65.4262 50.0489 66.1031C48.0281 66.3533 45.4508 66.2368 43.8657 67.7349C42.4505 69.0716 42.3907 70.7226 42.5754 72.5383C43.0657 77.3781 43.2494 82.3163 44.3261 87.0748C44.4115 87.4533 44.8046 87.8447 45.1912 87.9067C51.5592 88.9365 57.9262 89.9673 64.2942 90.9971C74.4337 92.6374 84.5732 94.2778 94.7127 95.9181C96.9899 96.286 99.2671 96.7233 101.554 97.0249C103.453 97.2751 105.412 97.2569 107.323 97.3575C117.456 97.8857 127.59 98.415 137.723 98.9433L143.23 99.2309C144.054 99.2737 144.973 99.4416 145.798 99.3646C146.957 99.2566 148.121 97.9231 148.995 97.2505C151.011 95.6979 153.028 94.1452 155.044 92.5925C155.471 92.2642 155.898 91.936 156.324 91.6077C157.55 90.6635 156.298 88.5761 155.056 89.5321C153.691 90.5833 152.327 91.6333 150.962 92.6845C149.201 94.0404 147.149 95.2947 145.555 96.8463C145.24 97.1532 145.142 96.9533 145.515 97.0228C146.61 97.227 145.589 96.8923 145.664 96.9287C145.433 96.8164 144.927 96.8902 144.674 96.8773C143.206 96.8003 141.736 96.7244 140.267 96.6474C130.203 96.1224 120.139 95.5973 110.074 95.0723C107.388 94.9322 104.699 94.8082 102.013 94.6521C101.763 94.6371 102.521 94.7301 102.067 94.6542C101.776 94.6061 101.486 94.5601 101.195 94.513C99.9635 94.3142 98.732 94.1142 97.5004 93.9153C87.8395 92.3519 78.1774 90.7896 68.5164 89.2263L54.1131 86.8962C52.4095 86.6203 50.7058 86.3455 49.0022 86.0696C48.0911 85.9221 47.0892 85.6259 46.1643 85.6109C46.0425 85.6087 45.9122 85.5702 45.7904 85.5499C46.0788 85.8269 46.3672 86.1049 46.6556 86.3819C46.1162 84.0015 45.8652 81.5667 45.6259 79.1404C45.3728 76.5729 44.9413 73.9253 44.8836 71.3482C44.8505 69.8415 45.6879 69.1176 47.1181 68.9122C48.7031 68.6845 50.2967 68.5091 51.8861 68.3166C55.0669 67.9327 58.2498 67.5734 61.437 67.2398C74.1827 65.9064 86.97 64.9857 99.7734 64.4606C100.47 64.4318 100.922 63.8896 100.963 63.2202C101.036 62.0664 100.81 60.3095 101.951 59.6166C102.425 59.3289 102.884 59.3642 103.392 59.3749C104.662 59.4016 105.933 59.469 107.202 59.516C112.387 59.7075 117.57 59.8989 122.755 60.0903C132.477 60.4496 142.198 60.7939 151.92 61.1671C152.454 61.1874 152.997 61.1895 153.523 61.2858C154.263 61.4205 154.966 61.5959 155.115 62.4503C155.223 63.0673 155.012 63.8115 154.945 64.4221C154.751 66.2015 154.64 67.9873 154.593 69.7763C154.411 76.7066 155.116 83.6262 154.906 90.5576C154.859 92.1231 157.287 92.0707 157.334 90.5095H157.338Z" fill="#E0E0E0"/>
<path d="M151.546 91.3627C154.832 91.2975 157.52 93.9633 157.472 97.2526C157.297 109.104 158.209 122.549 157.576 133.731C157.39 137.012 157.069 140.614 154.74 142.932C152.38 145.283 148.72 145.557 145.394 145.694C122.807 146.623 100.221 147.553 77.6338 148.482C70.6879 148.767 63.7143 149.053 56.7994 148.341C55.2325 148.179 53.5599 147.917 52.4095 146.839C51.1182 145.631 50.8212 143.725 50.5969 141.969C48.8079 127.92 46.9846 102.221 45.1956 88.1718L49.861 82.7696L115.558 79.8685L117.92 92.0321L151.546 91.3627Z" fill="#F6F6F6"/>
<path d="M152.103 95.0423L141.441 95.2547C140.186 95.2797 139.189 96.3186 139.214 97.5751L139.227 98.208C139.252 99.4645 140.289 100.463 141.544 100.438L152.206 100.225C153.461 100.2 154.458 99.1615 154.434 97.905L154.421 97.2721C154.396 96.0156 153.358 95.0173 152.103 95.0423Z" fill="#EBEBEB"/>
<path d="M103.917 138.808C85.9606 139.803 67.9225 142.213 50.1931 138.583C50.3288 139.765 50.4633 140.909 50.599 141.969C50.8222 143.725 51.1202 145.63 52.4116 146.839C53.5619 147.916 55.2346 148.179 56.8015 148.341C63.7164 149.053 70.69 148.769 77.6359 148.482C100.223 147.553 122.809 146.623 145.396 145.695C148.722 145.558 152.382 145.283 154.742 142.933C155.495 142.184 156.023 141.291 156.419 140.326C138.912 139.915 121.449 137.837 103.919 138.809L103.917 138.808Z" fill="#EBEBEB"/>
<path d="M151.639 92.5774C153.114 92.6009 154.483 93.2062 155.378 94.4092C156.417 95.8068 156.249 97.4386 156.24 99.0811C156.217 102.762 156.282 106.442 156.36 110.122C156.515 117.489 156.763 124.87 156.438 132.237C156.307 135.212 156.352 138.799 154.525 141.323C152.559 144.04 148.894 144.312 145.827 144.458C137.813 144.841 129.792 145.119 121.776 145.448C105.467 146.119 89.1585 146.906 72.8454 147.449C68.8763 147.582 64.8998 147.643 60.9328 147.439C59.0498 147.343 57.0492 147.32 55.211 146.873C53.3012 146.409 52.4532 145.249 52.0473 143.395C51.5058 140.921 51.3701 138.299 51.0999 135.784C50.7998 132.992 50.5231 130.197 50.2561 127.402C49.0032 114.318 48.0633 101.188 46.4131 88.1461C46.2998 88.4348 46.1877 88.7236 46.0745 89.0134C47.6296 87.2126 49.1848 85.4119 50.7399 83.6111C50.4558 83.7351 50.1717 83.8603 49.8887 83.9843C58.9163 83.5854 67.9449 83.1866 76.9725 82.7888C88.0274 82.3001 99.0822 81.8125 110.137 81.3238C112.464 81.2211 114.605 81.7783 115.219 84.4484C115.82 87.0672 116.247 89.7384 116.759 92.3764C116.86 92.8929 117.453 93.2554 117.948 93.2458C127.77 93.0501 137.592 92.8544 147.414 92.6587C148.824 92.6309 150.234 92.602 151.642 92.5742C153.205 92.5432 153.16 90.1116 151.594 90.1426C141.772 90.3382 131.951 90.5339 122.129 90.7296C120.719 90.7574 119.309 90.7863 117.9 90.8141C118.296 91.1039 118.693 91.3937 119.089 91.6835C118.553 88.9225 118.22 86.0299 117.448 83.3245C116.536 80.1315 113.592 78.736 110.505 78.8729C105.209 79.1071 99.9143 79.3402 94.6186 79.5744C80.3445 80.2042 66.0715 80.8351 51.7974 81.465C50.5242 81.5216 49.4806 81.3559 48.5856 82.391C47.4075 83.7544 46.2304 85.1189 45.0523 86.4822C44.7415 86.8415 44.2555 87.2682 44.0803 87.7227C43.7236 88.6444 44.2512 90.3532 44.3634 91.321C45.7818 103.632 46.7228 115.995 47.9127 128.328C48.1914 131.218 48.4809 134.107 48.7981 136.992C49.0844 139.589 49.1453 142.454 49.9421 144.952C50.9813 148.209 53.6719 149.222 56.8271 149.552C60.9734 149.988 65.1529 150.047 69.3185 149.973C86.2159 149.67 103.126 148.647 120.012 147.952C128.482 147.603 136.953 147.279 145.422 146.906C148.441 146.773 151.76 146.572 154.343 144.815C156.914 143.067 158.057 140.187 158.477 137.204C159.471 130.147 159.056 122.778 158.912 115.678C158.832 111.765 158.73 107.854 158.687 103.941C158.666 102.124 158.659 100.308 158.675 98.4908C158.688 96.967 158.692 95.5715 158.036 94.1632C156.853 91.6257 154.345 90.1853 151.594 90.1415C150.03 90.1169 150.081 92.5486 151.642 92.5731L151.639 92.5774Z" fill="#E0E0E0"/>
<path d="M53.1967 114.018C53.4114 117.62 53.7937 121.21 54.3438 124.776C54.4848 125.691 55.1086 126.585 56.1542 126.518C57.0087 126.462 58.0458 125.69 57.8942 124.705C57.3441 121.139 56.9617 117.55 56.747 113.947C56.6915 113.02 55.9214 112.142 54.9366 112.205C54.0074 112.265 53.1379 113.023 53.1967 114.018Z" fill="white"/>
<path d="M54.8362 130.673C54.8383 130.763 54.8394 130.853 54.8415 130.943C54.8373 131.188 54.8928 131.414 55.0082 131.624C55.084 131.843 55.21 132.031 55.3863 132.189C55.5508 132.359 55.743 132.477 55.9652 132.545C56.1788 132.652 56.4074 132.699 56.652 132.684C56.809 132.659 56.966 132.636 57.123 132.611C57.4221 132.52 57.6795 132.363 57.8974 132.138C57.9871 132.016 58.0779 131.895 58.1676 131.774C58.3225 131.494 58.3973 131.193 58.3919 130.872C58.3898 130.782 58.3887 130.693 58.3866 130.603C58.3908 130.358 58.3353 130.131 58.22 129.922C58.1441 129.702 58.0181 129.514 57.8418 129.357C57.6774 129.187 57.4851 129.068 57.2629 129.001C57.0493 128.894 56.8207 128.847 56.5761 128.862C56.4191 128.887 56.2621 128.91 56.1051 128.935C55.806 129.026 55.5486 129.183 55.3307 129.407C55.241 129.529 55.1502 129.651 55.0605 129.772C54.9056 130.052 54.8309 130.353 54.8362 130.673Z" fill="white"/>
<g style="mix-blend-mode:screen" opacity="0.57">
<path d="M139.097 65.3535C144.581 76.9086 141.806 92.5433 127.607 99.0491C109.674 107.266 91.2884 95.9555 89.2056 77.145C87.5949 62.6053 99.5961 52.0596 113.179 50.3743C125.218 48.8815 134.652 55.9894 139.098 65.3535H139.097Z" fill="white"/>
</g>
<path d="M91.459 86.2557C90.1656 87.202 89.0099 88.3366 88.039 89.6123C87.7217 90.0294 87.4152 90.4817 87.3415 91.0003C87.2133 91.8996 87.8008 92.7305 88.3786 93.4309C89.4596 94.7419 90.6184 95.9898 91.8457 97.1661C92.4257 97.7221 93.1263 98.2985 93.9253 98.2183C94.4561 98.1648 94.9101 97.8258 95.316 97.4794C96.4343 96.5234 97.3315 96.3052 98.14 95.0755" fill="white"/>
<path d="M88.6468 88.9194C87.4751 85.7553 82.9197 89.376 81.529 90.5031C78.4871 92.9658 74.6376 95.3247 74.754 99.4758C74.879 103.918 78.9143 108.909 83.5531 109.029C87.9419 109.143 96.4055 101.992 95.1954 98.9861" fill="white"/>
<path d="M109.209 66.8014C106.996 67.4226 105.117 69.1368 104.296 71.2861L109.209 66.8014Z" fill="white"/>
<path d="M139.097 65.3534C134.652 55.9882 125.217 48.8804 113.178 50.3731C99.5949 52.0584 87.5948 62.6041 89.2045 77.1438C91.2872 95.9544 109.672 107.265 127.606 99.0479C141.805 92.5421 144.58 76.9085 139.095 65.3523L139.097 65.3534ZM117.939 91.7444C110.688 93.2308 103.422 89.0957 99.8823 82.8401C98.1669 79.8075 97.2611 76.0071 97.7856 72.5329C98.2716 69.3163 99.8577 66.4152 102.07 64.0638C106.495 59.3587 113.529 56.787 119.792 59.0443C119.912 59.0882 120.019 59.1427 120.12 59.2005C127.683 61.1381 132.998 68.4181 132.803 76.3054C132.602 84.458 125.445 90.2035 117.939 91.7423V91.7444Z" fill="#D1D1D1"/>
<path d="M139.815 67.028C140.279 68.8223 140.533 70.6723 140.452 72.6045C140.188 78.8601 137.783 86.7924 133.588 91.2665C128.937 96.2281 122.722 99.1068 115.926 99.4468C109.863 99.7494 102.884 96.7393 97.3274 94.2895C104.793 101.637 116.287 104.234 127.606 99.048C141.13 92.8512 144.284 78.3746 139.814 67.028H139.815Z" fill="#ECECEC"/>
<path d="M91.459 86.2556C90.1656 87.202 89.0099 88.3365 88.039 89.6122C87.7217 90.0293 87.4152 90.4816 87.3415 91.0002C87.2133 91.8995 87.8008 92.7304 88.3786 93.4308C89.4596 94.7418 90.6184 95.9897 91.8457 97.166C92.4257 97.722 93.1263 98.2984 93.9253 98.2182C94.4561 98.1647 94.9101 97.8257 95.316 97.4793C96.4343 96.5233 97.3315 96.3052 98.14 95.0754" fill="white"/>
<path d="M83.5531 109.028C86.6079 109.107 89.8015 106.712 91.9399 104.767C93.0154 103.788 94.185 102.637 94.8162 101.302C96.0285 98.739 94.2619 99.2447 92.6555 98.1743C92.3083 97.9423 92.0392 97.6129 91.7764 97.2889C90.8718 96.1726 89.9671 95.0562 89.0624 93.9398C88.4386 93.1699 87.7935 92.3561 87.6098 91.3809C87.347 89.9811 89.0282 89.2433 88.1823 88.144C87.6664 87.4746 86.657 87.6404 85.9628 87.8051C84.3232 88.1932 82.8097 89.4647 81.528 90.5019C78.486 92.9646 74.6366 95.3224 74.7541 99.4736C74.8791 103.916 78.9143 108.907 83.5531 109.027V109.028Z" fill="#C1C1C1"/>
<path d="M79.5648 93.4158C82.0129 91.2847 84.7173 89.501 87.4047 87.696C86.9293 87.6062 86.3868 87.7056 85.9627 87.8061C84.3232 88.1943 82.8097 89.4657 81.528 90.503C78.6387 92.8427 75.0286 95.0904 74.7722 98.8662C75.9792 96.7628 77.8078 94.945 79.5637 93.4158H79.5648Z" fill="#EBEBEB"/>
<path d="M91.9398 104.767C93.0154 103.788 94.185 102.637 94.8162 101.302C95.8544 99.1078 94.7073 99.1613 93.3476 98.5496C91.002 101.016 88.5582 103.431 85.669 105.255C83.8404 106.41 81.9007 107.285 79.8713 107.877C81.0035 108.561 82.2511 108.995 83.5531 109.028C86.6068 109.107 89.8015 106.712 91.9398 104.767Z" fill="#EBEBEB"/>
<path d="M109.209 66.8013C106.996 67.4226 105.117 69.1367 104.296 71.286L109.209 66.8013Z" fill="#C1B6BA"/>
<path d="M138.06 65.9876C142.027 74.4951 141.252 85.2066 134.844 92.3283C127.877 100.072 115.685 102.663 106.111 98.6962C96.6779 94.7867 90.4691 85.1093 90.2779 74.9485C90.0771 64.2659 98.1359 55.8696 107.891 52.7728C113.769 50.9068 120.199 50.8159 125.856 53.4711C131.314 56.0332 135.458 60.6013 138.06 65.9876C138.741 67.3948 140.811 66.1191 140.134 64.7183C137.607 59.4882 133.614 54.9392 128.514 52.1012C123.205 49.1467 117.133 48.3971 111.196 49.4547C100.324 51.3912 89.9756 59.3599 88.1598 70.729C86.3857 81.8329 92.2389 93.6607 101.871 99.2939C111.796 105.098 124.994 103.81 133.879 96.5821C143.35 88.8787 145.144 75.464 140.134 64.7183C139.474 63.3025 137.405 64.5803 138.06 65.9876Z" fill="#C1C1C1"/>
<path d="M90.8246 85.2172C89.9018 85.9016 89.0259 86.6501 88.2409 87.4906C87.5445 88.236 86.7755 89.0807 86.3749 90.0292C85.388 92.3678 87.552 94.4092 88.9886 95.98C89.7181 96.7778 90.4647 97.583 91.2786 98.2962C92.1555 99.0661 93.2642 99.6714 94.4658 99.3495C95.4538 99.0843 96.1715 98.2973 96.9983 97.7402C97.872 97.152 98.5993 96.5404 99.1996 95.6657C99.5713 95.1246 99.2658 94.3097 98.7307 94.0103C98.1123 93.6649 97.4501 93.9365 97.0773 94.4798C96.7248 94.993 96.2378 95.3235 95.7304 95.6646C95.426 95.8699 95.1269 96.0795 94.8386 96.3073C94.5747 96.5158 94.2821 96.8376 93.9616 96.9595C93.4255 97.1638 92.8658 96.4602 92.5261 96.1319C91.8885 95.5159 91.2711 94.8786 90.673 94.2242C90.1143 93.6136 89.5354 92.9966 89.0494 92.3251C88.6414 91.7615 88.3755 91.3178 88.76 90.6869C89.5643 89.3662 90.8631 88.2017 92.0935 87.2896C92.6201 86.8993 92.8604 86.2128 92.4962 85.6172C92.1769 85.0953 91.3555 84.8205 90.8257 85.214L90.8246 85.2172Z" fill="#C1C1C1"/>
<path d="M89.8111 88.5729C88.0947 84.4378 83.5029 87.3902 81.1691 89.2444C77.9082 91.8354 73.6134 94.543 73.5375 99.2063C73.467 103.546 76.6083 107.991 80.5795 109.602C84.2399 111.088 87.7753 109.461 90.7682 107.274C92.4248 106.064 93.9746 104.668 95.1784 102.997C96.0467 101.791 96.9044 100.158 96.3607 98.6396C95.8363 97.1735 93.5025 97.8536 94.0312 99.3325C94.1337 99.6201 94.1434 99.665 94.0163 100.092C93.8667 100.593 93.5805 101.057 93.2857 101.487C92.507 102.624 91.4688 103.614 90.4136 104.491C88.5529 106.037 85.8196 108.007 83.2573 107.801C79.8276 107.525 77.0612 104.256 76.2185 101.108C75.2102 97.3382 77.8783 94.898 80.5966 92.7732C81.3496 92.184 86.7243 87.4415 87.4816 89.2669C88.0755 90.6966 90.4125 90.0218 89.8111 88.574V88.5729Z" fill="#C1C1C1"/>
<path d="M108.863 65.6358C107.55 66.0122 106.361 66.7105 105.354 67.628C104.339 68.554 103.612 69.7132 103.117 70.9857C103.012 71.2594 103.113 71.6818 103.258 71.9203C103.411 72.1694 103.705 72.4047 103.995 72.4646C104.307 72.5298 104.657 72.5073 104.929 72.3234C105.209 72.1352 105.351 71.8978 105.473 71.5856C105.329 71.9524 105.52 71.4851 105.559 71.4006C105.611 71.2883 105.667 71.1782 105.726 71.0691C105.854 70.8296 105.995 70.5975 106.149 70.373C106.19 70.312 106.236 70.2532 106.277 70.1912C106.082 70.4788 106.226 70.2628 106.272 70.2051C106.348 70.1078 106.427 70.0137 106.509 69.9206C106.696 69.7068 106.895 69.5036 107.106 69.3122C107.206 69.2202 107.315 69.1379 107.414 69.0448C107.338 69.1176 107.23 69.1903 107.376 69.0791C107.435 69.0342 107.495 68.9903 107.554 68.9465C107.775 68.7882 108.004 68.6406 108.24 68.507C108.359 68.4396 108.478 68.3765 108.6 68.3156C108.662 68.2846 108.748 68.2632 108.801 68.2204C108.729 68.2792 108.567 68.3209 108.751 68.245C109.013 68.1359 109.281 68.044 109.555 67.9659C110.166 67.7905 110.587 67.0698 110.373 66.4528C110.156 65.8251 109.516 65.4455 108.862 65.6337L108.863 65.6358Z" fill="white"/>
<path d="M103.012 77.0648C104.574 77.0338 104.529 74.6021 102.964 74.6331C101.401 74.6641 101.446 77.0958 103.012 77.0648Z" fill="white"/>
</svg>
