<svg width="233" height="190" viewBox="0 0 233 190" fill="none" xmlns="http://www.w3.org/2000/svg">
<path d="M116.325 189.978C147.985 189.978 173.65 164.336 173.65 132.706C173.65 101.075 147.985 75.4335 116.325 75.4335C84.6654 75.4335 59 101.075 59 132.706C59 164.336 84.6654 189.978 116.325 189.978Z" fill="#64B557"/>
<path d="M107.091 146.597L92.7727 132.493L88 137.194L107.091 156L148 115.701L143.227 111L107.091 146.597Z" fill="white"/>
<path d="M204.758 120.648C203.05 114.632 195.233 115.223 195.233 115.223L195.452 119.401C199.985 118.614 202.788 123.93 202.788 123.93L204.758 120.67V120.648Z" fill="#FFC046"/>
<path d="M38.7169 133.249C37.009 127.233 29.1919 127.824 29.1919 127.824L29.4109 132.002C33.9434 131.214 36.7462 136.508 36.7462 136.508L38.7169 133.249Z" fill="#D4FD7E"/>
<path d="M130.179 50.0312C139.266 52.7877 144.915 42.3089 144.915 42.3089L139.397 39.1587C136.704 45.5685 127.639 44.8247 127.639 44.8247L130.201 50.0094L130.179 50.0312Z" fill="#B1ED75"/>
<path d="M79.7951 61.2976C75.5691 61.7351 75.0654 67.0511 75.0654 67.0511L77.8901 67.3792C77.8901 64.2728 81.7658 62.9821 81.7658 62.9821L79.7951 61.2976Z" fill="#F43F3F"/>
<path d="M175.96 87.0406C176.573 82.8403 171.559 81.0465 171.559 81.0465L170.53 83.6935C173.552 84.4592 173.814 88.5282 173.814 88.5282L175.938 87.0406H175.96Z" fill="#E0E0E0"/>
<path d="M104.45 5.99412C105.063 1.79386 100.049 0 100.049 0L99.02 2.64704C102.042 3.41271 102.305 7.48172 102.305 7.48172L104.428 5.99412H104.45Z" fill="#36A333"/>
<path d="M0.0476247 73.7671C-0.718755 80.3519 8.01797 81.9489 8.01797 81.9489L9.59452 77.6392C4.36125 77.1579 3.59487 71.0107 3.59487 71.0107L0.0476247 73.7671Z" fill="#39ADEF"/>
<path d="M194.401 49.9C198.649 50.1406 200.007 44.9997 200.007 44.9997L197.27 44.2121C196.766 47.2967 192.737 47.9092 192.737 47.9092L194.401 49.9Z" fill="#36A333"/>
<path d="M217.59 67.1823C217.59 67.3792 216.013 67.5323 214.086 67.5323C212.16 67.5323 210.583 67.3792 210.583 67.1823C210.583 66.9854 212.16 66.8323 214.086 66.8323C216.013 66.8323 217.59 66.9854 217.59 67.1823Z" fill="#DFCB85"/>
<path d="M221.29 57.6442C221.487 57.6442 221.641 59.2412 221.641 61.1882C221.641 63.1352 221.487 64.7322 221.29 64.7322C221.093 64.7322 220.94 63.1352 220.94 61.1882C220.94 59.2412 221.093 57.6442 221.29 57.6442Z" fill="#DFCB85"/>
<path d="M225.254 66.9417C225.254 66.7448 226.83 66.5917 228.757 66.5917C230.684 66.5917 232.261 66.7448 232.261 66.9417C232.261 67.1386 230.684 67.2917 228.757 67.2917C226.83 67.2917 225.254 67.1386 225.254 66.9417Z" fill="#DFCB85"/>
<path d="M221.531 76.4579C221.334 76.4579 221.181 74.8609 221.181 72.9139C221.181 70.9669 221.334 69.37 221.531 69.37C221.729 69.37 221.882 70.9669 221.882 72.9139C221.882 74.8609 221.729 76.4579 221.531 76.4579Z" fill="#DFCB85"/>
<path d="M227.203 72.3889C227.049 72.5202 226.392 71.9514 225.692 71.1201C225.013 70.2888 224.575 69.5231 224.706 69.4137C224.86 69.2825 225.517 69.8512 226.217 70.6825C226.896 71.5138 227.334 72.2795 227.203 72.3889Z" fill="#DFCB85"/>
<path d="M226.874 61.582C227.006 61.7132 226.546 62.4133 225.823 63.1352C225.101 63.8571 224.422 64.3384 224.29 64.2071C224.159 64.0759 224.619 63.3758 225.341 62.6539C226.064 61.932 226.743 61.4507 226.874 61.582Z" fill="#DFCB85"/>
<path d="M218.838 64.3384C218.707 64.4915 218.072 64.1415 217.393 63.5727C216.714 63.0039 216.254 62.4351 216.386 62.282C216.517 62.1289 217.152 62.4789 217.831 63.0477C218.51 63.6165 218.97 64.1853 218.838 64.3384Z" fill="#DFCB85"/>
<path d="M218.532 69.0856C218.663 69.2168 218.269 69.895 217.612 70.595C216.955 71.2951 216.32 71.7764 216.189 71.6451C216.057 71.5138 216.452 70.8357 217.108 70.1356C217.765 69.4356 218.4 68.9543 218.532 69.0856Z" fill="#DFCB85"/>
<path d="M26.8272 47.6686C26.8272 47.8655 25.2507 48.0186 23.3238 48.0186C21.3969 48.0186 19.8203 47.8655 19.8203 47.6686C19.8203 47.4717 21.3969 47.3186 23.3238 47.3186C25.2507 47.3186 26.8272 47.4717 26.8272 47.6686Z" fill="#C82CFF"/>
<path d="M30.5496 38.1524C30.7466 38.1524 30.8999 39.7493 30.8999 41.6963C30.8999 43.6433 30.7466 45.2403 30.5496 45.2403C30.3525 45.2403 30.1992 43.6433 30.1992 41.6963C30.1992 39.7493 30.3525 38.1524 30.5496 38.1524Z" fill="#C82CFF"/>
<path d="M34.5127 47.4498C34.5127 47.2529 36.0892 47.0998 38.0161 47.0998C39.943 47.0998 41.5196 47.2529 41.5196 47.4498C41.5196 47.6467 39.943 47.7999 38.0161 47.7999C36.0892 47.7999 34.5127 47.6467 34.5127 47.4498Z" fill="#C82CFF"/>
<path d="M30.7903 56.9661C30.5932 56.9661 30.4399 55.3691 30.4399 53.4221C30.4399 51.4751 30.5932 49.8781 30.7903 49.8781C30.9874 49.8781 31.1406 51.4751 31.1406 53.4221C31.1406 55.3691 30.9874 56.9661 30.7903 56.9661Z" fill="#C82CFF"/>
<path d="M36.4399 52.8752C36.2866 53.0064 35.6297 52.4376 34.929 51.6063C34.2502 50.775 33.8123 50.0094 33.9437 49.9C34.097 49.7687 34.7539 50.3375 35.4545 51.1688C36.1333 52.0001 36.5713 52.7658 36.4399 52.8752Z" fill="#C82CFF"/>
<path d="M36.133 42.0901C36.2644 42.2214 35.8046 42.9214 35.082 43.6433C34.3594 44.3653 33.6806 44.8465 33.5492 44.7153C33.4178 44.584 33.8777 43.884 34.6003 43.1621C35.3228 42.4401 36.0016 41.9589 36.133 42.0901Z" fill="#C82CFF"/>
<path d="M28.0974 44.8465C27.966 44.9997 27.331 44.6497 26.6522 44.0809C25.9734 43.5121 25.5136 42.9433 25.645 42.7902C25.7764 42.637 26.4114 42.9871 27.0902 43.5558C27.769 44.1246 28.2288 44.6934 28.0974 44.8465Z" fill="#C82CFF"/>
<path d="M27.769 49.5937C27.9004 49.725 27.5062 50.4031 26.8493 51.1032C26.1924 51.8032 25.5574 52.2845 25.4261 52.1532C25.2947 52.022 25.6888 51.3438 26.3457 50.6438C27.0026 49.9437 27.6376 49.4625 27.769 49.5937Z" fill="#C82CFF"/>
</svg>
